# xmcd
#
# Track frame offsets:
#	150
#	13882
#	27952
#	41696
#	54020
#	67316
#	80112
#	92837
#	104054
#	117090
#	129813
#	142585
#	155278
#	168172
#	180540
#	191113
#	204602
#	218061
#	230247
#	242573
#	256230
#	271018
#	285646
#	298588
#	312135
#	324633
#	337879
#	349922
#
# Disc length: 4848 seconds
#
# Revision: 4
# Processed by: cddbd v1.5.2PL0 Copyright (c) Steve Scherf et al.
# Submitted via: audiograbber 1.83.01
#
DISCID=9812ee1c
DTITLE=Various Artist - Country and Western Hitparade 1949
DYEAR=2008
DGENRE=Hillbilly/Country
TTITLE0=Vaughn Monroe and His Orchestra - Riders In The Sky
TTITLE1=Sons Of The Pioneers - Room Full Of Roses
TTITLE2=Jimmy Wakely - I Wish I Had A Nickel
TTITLE3=Hank Williams with His Drifting Cowboys - Lovesick Blues
TTITLE4=Eddy Arnold, The Tennessee Plowboy and His Guitar - Then I Turned And W
TTITLE4=alked Slowly Away
TTITLE5=Little Jimmy Dickens - Take An Old Cold Tater (And Wait)
TTITLE6=Delmore Brothers - Blues Stay Away From Me
TTITLE7=Bob Wills and His Texas Playboys - Don't Be Ashamed Of Your Age
TTITLE8=George Morgan - Candy Kisses
TTITLE9=Leon McAuliffe and His Western Swing Band - Panhandle Rag (instr.)
TTITLE10=Floyd Tillman - Slippin' Around
TTITLE11=Pee Wee King and His Golden West Cowboys - Bonaparte's Retreat
TTITLE12=Bill Nettles and His Dixie Blue Boys - Hadacol Boogie
TTITLE13=Leon Payne - I Love You Because
TTITLE14=Hank Thompson and His Brazos Valley Boys - Whoa Sailor
TTITLE15=Ernest Tubb - Let's Say Goodbye Like We Said Hello
TTITLE16=Wayne Raney - Why Don't You Haul Off And Love Me
TTITLE17=Jimmie Skinner - Will You Be Satisfied That Way
TTITLE18=Bill Monroe and His Blue Grass Boys - The Old Cross Road
TTITLE19=Johnnie and Jack and Their Tennessee Mountain Boys - What About You
TTITLE20=The Stanley Brothers and The Clinch Mountain Boys - The White Dove
TTITLE21=Maddox Brothers and Rose - Philadelphia Lawyer
TTITLE22=Floyd Tillman - This Cold War With You
TTITLE23=T. Texas Tyler, The Man With A Million Friends  - My Bucket's Got A Ho
TTITLE23=le In It
TTITLE24=Hank Williams with His Drifting Cowboys - I'm So Lonesome I Could Cry
TTITLE25=Bob Wills and His Texas Playboys - Warm Red Wine
TTITLE26=Eddy Arnold, The Tennessee Plowboy and His Guitar - I'm Throwing Rice
TTITLE27=Tennessee Ernie Ford - Mule Train
EXTD=
EXTT0=
EXTT1=
EXTT2=
EXTT3=
EXTT4=
EXTT5=
EXTT6=
EXTT7=
EXTT8=
EXTT9=
EXTT10=
EXTT11=
EXTT12=
EXTT13=
EXTT14=
EXTT15=
EXTT16=
EXTT17=
EXTT18=
EXTT19=
EXTT20=
EXTT21=
EXTT22=
EXTT23=
EXTT24=
EXTT25=
EXTT26=
EXTT27=
PLAYORDER=
